<mxfile host="app.diagrams.net" agent="Mozilla/5.0 (Windows NT 10.0; Win64; x64) AppleWebKit/537.36 (KHTML, like Gecko) Chrome/128.0.0.0 Safari/537.36" version="24.7.10">
  <diagram name="Page-1" id="5ihBTCsOCTaEU8xeGplV">
    <mxGraphModel dx="2630" dy="-4097" grid="1" gridSize="10" guides="1" tooltips="1" connect="1" arrows="1" fold="1" page="1" pageScale="1" pageWidth="850" pageHeight="1100" math="0" shadow="0">
      <root>
        <mxCell id="0" />
        <mxCell id="1" parent="0" />
        <mxCell id="Nz62Kl-8SAMfCziT-zJM-1" style="edgeStyle=orthogonalEdgeStyle;rounded=0;orthogonalLoop=1;jettySize=auto;html=1;exitX=0.374;exitY=-0.001;exitDx=0;exitDy=0;entryX=1;entryY=0.25;entryDx=0;entryDy=0;exitPerimeter=0;" edge="1" parent="1" source="Nz62Kl-8SAMfCziT-zJM-5" target="Nz62Kl-8SAMfCziT-zJM-21">
          <mxGeometry relative="1" as="geometry" />
        </mxCell>
        <mxCell id="Nz62Kl-8SAMfCziT-zJM-2" value="R" style="edgeLabel;html=1;align=center;verticalAlign=middle;resizable=0;points=[];" connectable="0" vertex="1" parent="Nz62Kl-8SAMfCziT-zJM-1">
          <mxGeometry x="0.0655" y="-2" relative="1" as="geometry">
            <mxPoint x="-2" as="offset" />
          </mxGeometry>
        </mxCell>
        <mxCell id="Nz62Kl-8SAMfCziT-zJM-3" style="edgeStyle=orthogonalEdgeStyle;rounded=0;orthogonalLoop=1;jettySize=auto;html=1;exitX=0.63;exitY=-0.003;exitDx=0;exitDy=0;entryX=0.75;entryY=0;entryDx=0;entryDy=0;exitPerimeter=0;" edge="1" parent="1" source="Nz62Kl-8SAMfCziT-zJM-5" target="Nz62Kl-8SAMfCziT-zJM-21">
          <mxGeometry relative="1" as="geometry" />
        </mxCell>
        <mxCell id="Nz62Kl-8SAMfCziT-zJM-4" value="B" style="edgeLabel;html=1;align=center;verticalAlign=middle;resizable=0;points=[];" connectable="0" vertex="1" parent="Nz62Kl-8SAMfCziT-zJM-3">
          <mxGeometry x="0.0871" y="-1" relative="1" as="geometry">
            <mxPoint as="offset" />
          </mxGeometry>
        </mxCell>
        <mxCell id="Nz62Kl-8SAMfCziT-zJM-5" value="Data Memory&lt;div&gt;&lt;/div&gt;" style="rounded=0;whiteSpace=wrap;html=1;rotation=0;direction=south;dashed=1;dashPattern=12 12;" vertex="1" parent="1">
          <mxGeometry x="160.04999999999998" y="6310" width="120" height="160" as="geometry" />
        </mxCell>
        <mxCell id="Nz62Kl-8SAMfCziT-zJM-6" style="edgeStyle=orthogonalEdgeStyle;rounded=0;orthogonalLoop=1;jettySize=auto;html=1;entryX=0.5;entryY=1;entryDx=0;entryDy=0;" edge="1" parent="1" source="Nz62Kl-8SAMfCziT-zJM-8" target="Nz62Kl-8SAMfCziT-zJM-10">
          <mxGeometry relative="1" as="geometry" />
        </mxCell>
        <mxCell id="Nz62Kl-8SAMfCziT-zJM-7" style="edgeStyle=orthogonalEdgeStyle;rounded=0;orthogonalLoop=1;jettySize=auto;html=1;entryX=0.5;entryY=1;entryDx=0;entryDy=0;" edge="1" parent="1" source="Nz62Kl-8SAMfCziT-zJM-8" target="Nz62Kl-8SAMfCziT-zJM-20">
          <mxGeometry relative="1" as="geometry" />
        </mxCell>
        <mxCell id="Nz62Kl-8SAMfCziT-zJM-8" value="Addressing Unti&lt;div&gt;&lt;/div&gt;" style="rounded=0;whiteSpace=wrap;html=1;rotation=0;direction=south;gradientColor=none;" vertex="1" parent="1">
          <mxGeometry x="180.04999999999976" y="5629.999999999999" width="80" height="117.82" as="geometry" />
        </mxCell>
        <mxCell id="Nz62Kl-8SAMfCziT-zJM-9" style="edgeStyle=orthogonalEdgeStyle;rounded=0;orthogonalLoop=1;jettySize=auto;html=1;entryX=0;entryY=0.5;entryDx=0;entryDy=0;" edge="1" parent="1" source="Nz62Kl-8SAMfCziT-zJM-10" target="Nz62Kl-8SAMfCziT-zJM-17">
          <mxGeometry relative="1" as="geometry" />
        </mxCell>
        <mxCell id="Nz62Kl-8SAMfCziT-zJM-10" value="Req&lt;br&gt;FIFO" style="shape=process;whiteSpace=wrap;html=1;backgroundOutline=1;direction=west;" vertex="1" parent="1">
          <mxGeometry x="120.85999999999993" y="5830" width="79.19" height="120.97" as="geometry" />
        </mxCell>
        <mxCell id="Nz62Kl-8SAMfCziT-zJM-11" style="edgeStyle=orthogonalEdgeStyle;rounded=0;orthogonalLoop=1;jettySize=auto;html=1;entryX=0.5;entryY=1;entryDx=0;entryDy=0;" edge="1" parent="1" target="Nz62Kl-8SAMfCziT-zJM-5">
          <mxGeometry relative="1" as="geometry">
            <mxPoint x="120" y="6100" as="sourcePoint" />
            <Array as="points">
              <mxPoint x="110" y="6100" />
              <mxPoint x="110" y="6390" />
            </Array>
          </mxGeometry>
        </mxCell>
        <mxCell id="Nz62Kl-8SAMfCziT-zJM-12" value="AW" style="edgeLabel;html=1;align=center;verticalAlign=middle;resizable=0;points=[];" connectable="0" vertex="1" parent="Nz62Kl-8SAMfCziT-zJM-11">
          <mxGeometry x="-0.2338" y="-1" relative="1" as="geometry">
            <mxPoint x="1" y="21" as="offset" />
          </mxGeometry>
        </mxCell>
        <mxCell id="Nz62Kl-8SAMfCziT-zJM-13" style="edgeStyle=orthogonalEdgeStyle;rounded=0;orthogonalLoop=1;jettySize=auto;html=1;entryX=0.25;entryY=1;entryDx=0;entryDy=0;" edge="1" parent="1" source="Nz62Kl-8SAMfCziT-zJM-17" target="Nz62Kl-8SAMfCziT-zJM-5">
          <mxGeometry relative="1" as="geometry">
            <mxPoint x="160" y="6340" as="targetPoint" />
            <Array as="points">
              <mxPoint x="150" y="6350" />
            </Array>
          </mxGeometry>
        </mxCell>
        <mxCell id="Nz62Kl-8SAMfCziT-zJM-14" value="W" style="edgeLabel;html=1;align=center;verticalAlign=middle;resizable=0;points=[];" connectable="0" vertex="1" parent="Nz62Kl-8SAMfCziT-zJM-13">
          <mxGeometry x="0.1195" y="-4" relative="1" as="geometry">
            <mxPoint x="4" y="-19" as="offset" />
          </mxGeometry>
        </mxCell>
        <mxCell id="Nz62Kl-8SAMfCziT-zJM-15" style="edgeStyle=orthogonalEdgeStyle;rounded=0;orthogonalLoop=1;jettySize=auto;html=1;exitX=0.426;exitY=1.007;exitDx=0;exitDy=0;exitPerimeter=0;entryX=0.75;entryY=1;entryDx=0;entryDy=0;" edge="1" parent="1" source="Nz62Kl-8SAMfCziT-zJM-17" target="Nz62Kl-8SAMfCziT-zJM-5">
          <mxGeometry relative="1" as="geometry">
            <Array as="points">
              <mxPoint x="70" y="6080" />
              <mxPoint x="70" y="6430" />
            </Array>
            <mxPoint x="160" y="6400" as="targetPoint" />
          </mxGeometry>
        </mxCell>
        <mxCell id="Nz62Kl-8SAMfCziT-zJM-16" value="AR" style="edgeLabel;html=1;align=center;verticalAlign=middle;resizable=0;points=[];" connectable="0" vertex="1" parent="Nz62Kl-8SAMfCziT-zJM-15">
          <mxGeometry x="-0.1439" y="-4" relative="1" as="geometry">
            <mxPoint x="5" y="-21" as="offset" />
          </mxGeometry>
        </mxCell>
        <mxCell id="Nz62Kl-8SAMfCziT-zJM-17" value="Request&lt;div&gt;&lt;/div&gt;&lt;div&gt;Unit&lt;/div&gt;" style="rounded=0;whiteSpace=wrap;html=1;rotation=0;direction=south;gradientColor=none;" vertex="1" parent="1">
          <mxGeometry x="120.04999999999976" y="6029.999999999999" width="80" height="117.82" as="geometry" />
        </mxCell>
        <mxCell id="Nz62Kl-8SAMfCziT-zJM-19" style="edgeStyle=orthogonalEdgeStyle;rounded=0;orthogonalLoop=1;jettySize=auto;html=1;entryX=0;entryY=0.5;entryDx=0;entryDy=0;" edge="1" parent="1" source="Nz62Kl-8SAMfCziT-zJM-20" target="Nz62Kl-8SAMfCziT-zJM-21">
          <mxGeometry relative="1" as="geometry" />
        </mxCell>
        <mxCell id="Nz62Kl-8SAMfCziT-zJM-20" value="Res&lt;br&gt;FIFO" style="shape=process;whiteSpace=wrap;html=1;backgroundOutline=1;direction=west;" vertex="1" parent="1">
          <mxGeometry x="240.27" y="5830" width="79.78" height="120.97" as="geometry" />
        </mxCell>
        <mxCell id="Nz62Kl-8SAMfCziT-zJM-21" value="&lt;span style=&quot;background-color: initial;&quot;&gt;Response&lt;/span&gt;&lt;div&gt;&lt;span style=&quot;background-color: initial;&quot;&gt;Unit&lt;/span&gt;&lt;/div&gt;" style="rounded=0;whiteSpace=wrap;html=1;rotation=0;direction=south;gradientColor=none;" vertex="1" parent="1">
          <mxGeometry x="240.04999999999953" y="6029.999999999999" width="80" height="117.82" as="geometry" />
        </mxCell>
        <mxCell id="Nz62Kl-8SAMfCziT-zJM-23" style="edgeStyle=orthogonalEdgeStyle;rounded=0;orthogonalLoop=1;jettySize=auto;html=1;entryX=0.75;entryY=0;entryDx=0;entryDy=0;" edge="1" parent="1" source="Nz62Kl-8SAMfCziT-zJM-24" target="Nz62Kl-8SAMfCziT-zJM-27">
          <mxGeometry relative="1" as="geometry" />
        </mxCell>
        <mxCell id="Nz62Kl-8SAMfCziT-zJM-24" value="&lt;span style=&quot;font-size: 9px;&quot;&gt;Token Register&lt;/span&gt;&lt;br&gt;&lt;div&gt;&lt;/div&gt;" style="rounded=0;whiteSpace=wrap;html=1;rotation=0;direction=south;container=0;labelBackgroundColor=none;labelBorderColor=none;textShadow=0;" vertex="1" parent="1">
          <mxGeometry x="600.3199999999999" y="6060" width="40" height="80" as="geometry" />
        </mxCell>
        <mxCell id="Nz62Kl-8SAMfCziT-zJM-25" value="" style="triangle;whiteSpace=wrap;html=1;rotation=-90;container=0;labelBackgroundColor=none;labelBorderColor=none;textShadow=0;" vertex="1" parent="1">
          <mxGeometry x="609.51" y="6108.82" width="21.61" height="39" as="geometry" />
        </mxCell>
        <mxCell id="Nz62Kl-8SAMfCziT-zJM-26" value="" style="edgeStyle=orthogonalEdgeStyle;rounded=0;orthogonalLoop=1;jettySize=auto;html=1;entryX=0.5;entryY=1;entryDx=0;entryDy=0;exitX=0.418;exitY=-0.03;exitDx=0;exitDy=0;exitPerimeter=0;" edge="1" parent="1" source="Nz62Kl-8SAMfCziT-zJM-21" target="Nz62Kl-8SAMfCziT-zJM-27">
          <mxGeometry relative="1" as="geometry">
            <mxPoint x="320.04999999999995" y="6059" as="sourcePoint" />
            <mxPoint x="1230.0500000000002" y="6060" as="targetPoint" />
          </mxGeometry>
        </mxCell>
        <mxCell id="Nz62Kl-8SAMfCziT-zJM-29" style="edgeStyle=orthogonalEdgeStyle;rounded=0;orthogonalLoop=1;jettySize=auto;html=1;exitX=0.25;exitY=0;exitDx=0;exitDy=0;" edge="1" parent="1" source="Nz62Kl-8SAMfCziT-zJM-27">
          <mxGeometry relative="1" as="geometry">
            <mxPoint x="550" y="6058" as="targetPoint" />
          </mxGeometry>
        </mxCell>
        <mxCell id="Nz62Kl-8SAMfCziT-zJM-27" value="Issue/&lt;div&gt;ALU&lt;/div&gt;" style="rounded=0;whiteSpace=wrap;html=1;rotation=0;direction=south;" vertex="1" parent="1">
          <mxGeometry x="440.04999999999995" y="6037.719999999999" width="40" height="81.78" as="geometry" />
        </mxCell>
        <mxCell id="Nz62Kl-8SAMfCziT-zJM-28" value="" style="triangle;whiteSpace=wrap;html=1;rotation=-90;container=0;labelBackgroundColor=none;labelBorderColor=none;textShadow=0;" vertex="1" parent="1">
          <mxGeometry x="449.25" y="6090.5" width="21.61" height="39" as="geometry" />
        </mxCell>
      </root>
    </mxGraphModel>
  </diagram>
</mxfile>
